<?xml version="1.0" standalone="no"?>
<!DOCTYPE svg PUBLIC "-//W3C//DTD SVG 20010904//EN"
 "http://www.w3.org/TR/2001/REC-SVG-20010904/DTD/svg10.dtd">
<svg version="1.0" xmlns="http://www.w3.org/2000/svg"
 width="512.000000pt" height="512.000000pt" viewBox="0 0 512.000000 512.000000"
 preserveAspectRatio="xMidYMid meet">
<metadata>
Created by potrace 1.11, written by Peter Selinger 2001-2013
</metadata>
<g transform="translate(0.000000,512.000000) scale(0.100000,-0.100000)"
fill="#000000" stroke="none">
<path d="M2765 5065 c-368 -65 -832 -394 -1071 -761 -49 -74 -136 -236 -140
-259 -8 -46 -24 -61 -80 -79 -122 -38 -325 -146 -404 -215 -111 -97 -181 -188
-234 -303 -48 -103 -67 -201 -65 -324 1 -109 9 -163 39 -274 14 -54 80 -221
91 -234 8 -9 -12 -42 -48 -81 -62 -66 -125 -152 -162 -219 l-43 -78 22 -101
c127 -607 292 -1132 467 -1480 67 -136 103 -179 213 -261 30 -23 56 -44 58
-48 2 -5 8 -8 13 -8 5 0 35 -17 66 -37 112 -71 373 -185 479 -208 10 -2 60
-13 109 -24 50 -11 115 -23 145 -26 30 -4 66 -9 80 -11 14 -2 97 -4 185 -5
333 -2 658 69 1014 222 119 51 399 196 438 227 15 12 35 60 67 162 86 278 218
715 231 765 7 28 36 133 64 235 60 217 107 420 116 506 6 50 3 72 -14 120 -22
57 -39 84 -170 261 l-65 87 30 20 c114 81 219 231 248 356 47 199 -45 445
-228 609 -22 20 -44 41 -50 46 -54 52 -298 220 -566 390 -522 331 -642 486
-541 704 69 151 49 256 -59 311 -48 25 -144 31 -235 15z m-31 -177 c-86 -67
-197 -177 -264 -262 -52 -66 -64 -78 -54 -53 6 17 -16 43 -43 52 -30 9 -67
-28 -58 -58 9 -30 36 -49 61 -43 19 5 16 -3 -22 -77 -128 -247 -132 -514 -11
-737 91 -167 226 -300 441 -434 l89 -56 -49 -1 c-90 -2 -209 1 -234 6 -14 3
-36 8 -50 11 -14 3 -35 7 -48 10 -60 12 -242 90 -242 103 0 4 -6 8 -14 8 -8 0
-42 17 -76 39 -57 36 -64 45 -104 129 -109 228 -128 464 -55 687 43 131 118
246 239 369 130 131 336 273 450 310 73 24 78 23 44 -3z m130 -68 c-13 -44
-26 -108 -30 -142 -4 -34 -17 -82 -30 -108 -55 -110 -82 -290 -61 -413 37
-209 192 -423 436 -600 109 -79 329 -207 355 -207 18 0 186 -202 186 -223 0
-3 -26 3 -57 14 -65 22 -154 43 -226 54 -27 3 -57 8 -67 10 -26 5 -193 16
-270 17 -58 1 -77 8 -176 59 -267 136 -429 285 -526 484 -22 45 -37 90 -35
102 2 12 0 20 -4 17 -5 -3 -9 -2 -10 3 0 4 -3 17 -6 28 -3 11 -6 70 -8 130 -4
134 15 216 80 350 67 138 189 285 335 406 44 36 130 99 136 99 0 0 -9 -36 -22
-80z m-824 -359 c-102 -149 -160 -343 -158 -530 1 -107 23 -237 54 -319 9 -24
14 -45 12 -47 -3 -4 -141 130 -183 178 -48 54 -105 131 -105 141 0 7 11 39 24
72 76 193 167 333 315 487 41 42 76 77 78 77 2 0 -15 -27 -37 -59z m824 -55
c10 -53 107 -262 171 -368 19 -32 31 -58 28 -58 -4 0 0 -6 8 -12 9 -7 47 -58
84 -113 59 -86 158 -218 250 -332 15 -18 24 -33 21 -33 -21 0 -276 176 -276
191 0 5 -6 9 -14 9 -33 0 -249 257 -249 297 0 7 -3 13 -7 13 -11 0 -42 86 -56
155 -15 71 -12 200 6 269 12 43 14 47 22 27 4 -12 10 -33 12 -45z m321 -271
c33 -27 128 -93 210 -148 83 -55 153 -104 156 -109 3 -5 10 -9 14 -7 4 1 41
-21 83 -48 43 -27 92 -58 110 -68 17 -11 32 -23 32 -27 0 -4 5 -8 11 -8 8 0
44 -22 107 -65 1 -1 -3 -16 -9 -33 -25 -71 56 -130 119 -86 22 15 25 15 50 -7
161 -140 244 -299 235 -453 -1 -33 -4 -61 -6 -63 -2 -2 -14 25 -27 59 -12 35
-40 89 -61 122 -22 32 -39 60 -39 62 0 2 -10 14 -22 27 -13 13 -44 45 -69 73
-97 103 -270 236 -463 356 -72 45 -132 85 -134 90 -2 4 -9 8 -15 8 -6 0 -52
31 -101 69 -150 114 -288 265 -352 386 l-27 50 69 -66 c38 -37 96 -88 129
-114z m75 -270 c22 -24 82 -65 410 -281 284 -187 470 -375 527 -534 22 -62 29
-143 15 -181 -11 -28 -75 -92 -122 -122 l-30 -19 11 28 c17 46 21 66 19 121
-2 97 -51 209 -139 318 -118 148 -252 264 -471 411 -97 65 -105 72 -204 207
-55 75 -64 103 -16 52z m-1854 -138 c-130 -133 -188 -233 -221 -380 -25 -113
-13 -211 40 -317 112 -225 350 -404 645 -489 115 -32 157 -41 290 -56 25 -2
70 -7 100 -11 30 -3 165 -5 300 -4 358 3 410 4 410 11 0 7 488 4 525 -5 17 -3
53 -11 80 -18 69 -15 131 -45 167 -81 29 -29 29 -31 12 -45 -57 -42 -147 -81
-289 -123 -97 -29 -123 -35 -192 -43 -18 -3 -40 -7 -50 -10 -16 -4 -41 -8
-143 -21 -110 -14 -256 -20 -500 -20 -345 1 -412 6 -640 52 -474 94 -834 331
-948 623 -34 86 -64 210 -60 241 3 16 0 25 -5 22 -10 -6 -4 167 7 222 28 137
129 281 270 386 49 36 258 149 277 149 3 0 -31 -37 -75 -83z m244 31 c254
-311 556 -526 830 -589 25 -6 54 -13 65 -16 11 -4 178 -7 370 -8 193 -1 366
-5 385 -8 19 -3 56 -8 81 -12 128 -17 246 -48 326 -87 56 -27 75 -43 105 -88
42 -62 84 -146 94 -187 7 -27 6 -27 -12 -12 -55 48 -223 104 -379 127 -65 9
-454 9 -525 -1 -30 -4 -111 -16 -180 -26 -133 -20 -343 -25 -425 -11 -27 5
-68 12 -90 15 -63 11 -218 69 -290 110 -221 123 -379 336 -420 565 -19 103 -4
270 23 270 4 0 23 -19 42 -42z m-131 -288 c45 -168 137 -323 255 -429 22 -20
45 -41 51 -48 52 -51 232 -146 346 -182 153 -49 380 -71 535 -50 33 4 82 10
109 14 28 3 59 8 70 11 26 5 82 12 174 19 144 11 201 12 207 4 3 -5 13 -5 23
1 10 5 20 8 22 6 2 -2 47 -6 99 -10 108 -7 124 -9 235 -37 90 -23 234 -89 264
-121 16 -16 19 -30 15 -62 -7 -47 -42 -130 -72 -166 l-20 -25 -29 29 c-127
129 -325 157 -913 130 -216 -10 -538 -11 -645 -1 -365 32 -613 129 -801 312
-146 143 -200 257 -191 405 8 134 63 246 184 380 l58 63 6 -99 c4 -54 12 -119
18 -144z m2213 -154 c169 -148 287 -332 283 -441 -2 -45 -15 -105 -23 -105 -4
0 -15 26 -26 58 -44 136 -166 338 -305 507 -36 44 -73 89 -81 100 -19 25 40
-21 152 -119z m397 -903 c137 -188 141 -196 104 -237 -31 -33 -29 -31 -92
-105 l-44 -52 -51 6 c-28 4 -60 9 -71 11 -11 2 -49 7 -85 10 -62 6 -68 5 -135
-33 -79 -45 -126 -71 -277 -155 l-107 -59 -190 56 -191 56 -232 -94 -233 -95
-40 21 c-22 11 -44 22 -50 23 -5 1 -77 32 -160 68 -148 66 -151 67 -215 61
-36 -3 -72 -8 -80 -10 -17 -5 -51 -10 -125 -21 -27 -3 -58 -8 -69 -10 -10 -2
-41 -6 -70 -9 l-51 -6 -54 61 c-29 33 -77 85 -105 115 l-51 54 -233 -3 -233
-3 -41 69 c-46 78 -43 75 -89 83 -18 3 -35 8 -38 10 -14 15 80 142 229 307 14
15 17 14 45 -19 33 -37 162 -147 210 -178 147 -93 389 -196 525 -221 14 -3 50
-11 80 -19 30 -7 73 -16 95 -19 51 -7 114 -17 139 -22 164 -30 728 -24 996 12
25 4 59 8 75 10 17 2 55 9 85 15 30 6 64 12 75 14 36 6 175 45 218 61 228 86
357 206 398 368 6 26 15 44 19 39 4 -4 57 -76 119 -160z m-3228 -350 c48 -84
52 -94 162 -418 42 -121 126 -366 187 -545 61 -179 130 -379 152 -445 22 -66
42 -122 45 -125 6 -6 -2 40 -10 60 -4 8 -36 130 -72 270 -77 301 -171 661
-220 850 -20 74 -38 142 -40 150 -1 8 -10 41 -18 73 l-15 57 148 0 148 0 6
-27 c3 -16 8 -39 10 -53 3 -14 7 -36 10 -50 8 -36 15 -71 20 -100 2 -14 11
-59 20 -100 8 -41 18 -91 21 -110 3 -19 10 -53 15 -75 5 -22 11 -56 14 -75 10
-56 34 -156 35 -145 1 6 -3 46 -9 90 -5 44 -12 105 -15 135 -11 111 -16 156
-20 190 -3 19 -8 62 -10 95 -3 33 -9 93 -13 133 -5 39 -7 72 -6 72 5 0 189
-212 189 -218 1 -4 5 -29 9 -57 4 -27 10 -63 12 -80 3 -27 6 -48 19 -135 3
-14 7 -45 10 -70 3 -25 12 -86 20 -136 8 -51 17 -114 20 -140 3 -27 8 -56 10
-64 6 -24 18 -122 19 -157 1 -18 3 -33 7 -33 3 0 6 -17 7 -38 2 -21 7 -51 12
-67 9 -32 9 -37 -5 160 -9 128 -14 213 -20 320 -3 55 -8 127 -10 160 -2 33 -6
107 -10 165 -3 58 -8 124 -10 148 -3 34 -1 42 13 43 9 0 28 3 42 5 14 2 94 15
178 27 l152 23 1 -56 c1 -30 2 -68 4 -85 1 -16 5 -82 9 -145 3 -63 8 -142 11
-175 5 -60 9 -130 20 -325 4 -58 8 -115 10 -127 2 -13 -1 -23 -8 -23 -8 0 -8
-3 -2 -8 12 -9 12 -3 19 -137 4 -60 9 -144 12 -185 9 -126 13 -183 13 -227 1
-24 4 -43 9 -43 4 0 6 28 5 62 -1 35 -2 369 -4 743 -1 576 0 680 12 677 8 -2
71 -28 140 -58 l125 -55 3 -102 c2 -56 4 -131 6 -167 2 -36 6 -159 10 -275 4
-116 9 -239 10 -275 2 -36 3 -110 4 -164 1 -55 3 -97 5 -95 3 2 7 49 10 104 4
55 9 134 11 175 3 41 7 134 10 205 4 72 8 159 10 195 2 36 7 130 10 210 4 80
8 156 9 170 2 22 17 31 142 81 76 31 152 62 167 69 16 7 32 9 37 4 7 -8 12
-68 25 -289 2 -38 10 -146 20 -265 5 -58 15 -195 20 -270 2 -25 4 -65 4 -89 1
-24 3 -42 6 -40 4 5 9 87 20 339 17 412 22 541 24 599 1 39 -13 40 171 -14
l125 -36 -2 -646 c-1 -355 0 -643 2 -641 1 1 6 71 10 153 4 83 8 177 10 210 2
33 6 130 10 215 4 85 8 182 10 215 2 33 6 128 10 210 11 254 14 290 22 293 4
1 80 43 167 92 88 49 163 87 166 85 4 -3 4 -26 0 -52 -5 -26 -11 -77 -14 -113
-4 -36 -16 -146 -27 -245 -11 -99 -22 -200 -24 -225 -3 -25 -7 -63 -10 -85 -6
-53 -23 -215 -31 -290 -3 -33 -7 -73 -9 -90 -5 -37 -15 -128 -20 -175 -2 -19
-7 -62 -10 -95 -4 -33 -5 -58 -2 -55 5 5 9 26 23 118 3 20 14 91 25 157 11 66
22 134 25 150 2 17 6 41 9 55 3 14 7 39 9 55 14 88 49 302 63 385 8 52 17 104
18 115 2 11 6 34 9 50 3 17 17 102 31 190 36 230 30 212 68 208 18 -3 55 -9
83 -14 l51 -10 -7 -47 c-5 -26 -14 -87 -20 -137 -7 -49 -14 -97 -15 -105 -2
-8 -6 -46 -10 -85 -4 -38 -8 -72 -10 -75 -1 -3 -5 -36 -9 -75 -5 -63 3 -42 89
223 l94 293 61 70 c37 44 60 64 60 53 0 -70 -388 -1411 -426 -1471 -14 -23
-321 -178 -459 -233 -143 -57 -340 -117 -435 -134 -14 -2 -36 -7 -50 -10 -99
-23 -194 -31 -380 -31 -257 0 -376 17 -581 86 -244 80 -552 270 -604 372 -65
125 -108 214 -125 259 -11 29 -25 62 -30 73 -67 140 -216 638 -298 998 -34
146 -37 167 -22 167 10 0 33 -30 61 -77z"/>
<path d="M2172 4423 c2 -10 10 -18 18 -18 8 0 16 8 18 18 2 12 -3 17 -18 17
-15 0 -20 -5 -18 -17z"/>
<path d="M2057 4064 c-9 -10 12 -44 26 -44 19 0 36 21 30 36 -5 14 -44 19 -56
8z"/>
<path d="M2193 3723 c-30 -6 -46 -28 -45 -63 1 -58 61 -84 107 -48 21 16 25
26 21 52 -5 28 -38 68 -55 65 -3 -1 -16 -4 -28 -6z"/>
<path d="M2623 4553 c-29 -6 -39 -34 -17 -50 23 -17 44 1 42 33 -1 13 -3 23
-3 23 0 -1 -10 -4 -22 -6z"/>
<path d="M2593 4313 c-19 -7 -16 -40 4 -47 9 -4 23 0 31 8 13 12 13 18 2 30
-13 17 -17 18 -37 9z"/>
<path d="M2510 4091 c-27 -51 8 -98 60 -79 39 13 46 34 25 81 -10 25 -71 23
-85 -2z"/>
<path d="M2532 3748 c-17 -17 -15 -45 3 -52 23 -8 45 4 45 25 0 24 -33 42 -48
27z"/>
<path d="M2854 3635 c-4 -9 -2 -21 4 -27 15 -15 44 -1 40 19 -4 23 -36 29 -44
8z"/>
<path d="M3080 3446 c-13 -8 -29 -29 -35 -47 -10 -30 -9 -36 13 -61 49 -55
132 -26 132 45 0 56 -60 91 -110 63z"/>
<path d="M3380 3346 c-10 -13 -10 -19 0 -32 12 -14 15 -14 29 0 14 15 14 17 0
32 -14 14 -17 14 -29 0z"/>
<path d="M1772 3968 c-28 -28 -7 -78 33 -78 27 0 45 18 45 45 0 27 -18 45 -45
45 -12 0 -26 -5 -33 -12z"/>
<path d="M2892 4158 c-28 -28 -1 -75 38 -63 20 6 24 16 20 45 -4 28 -37 39
-58 18z"/>
<path d="M2987 3983 c-13 -12 -7 -33 8 -33 8 0 15 9 15 20 0 20 -11 26 -23 13z"/>
<path d="M3058 3859 c-36 -21 -16 -79 27 -79 12 0 26 5 33 12 7 7 12 21 12 33
0 40 -35 56 -72 34z"/>
<path d="M3386 3934 c-12 -12 -13 -20 -6 -35 11 -20 19 -23 44 -13 19 7 21 35
4 52 -16 16 -23 15 -42 -4z"/>
<path d="M3593 3784 c-3 -8 1 -22 9 -30 19 -19 52 3 42 29 -8 21 -43 22 -51 1z"/>
<path d="M3617 3573 c-14 -13 -6 -33 13 -33 13 0 20 7 20 20 0 19 -20 27 -33
13z"/>
<path d="M4083 3183 c-18 -6 -16 -40 1 -46 8 -3 20 1 27 9 10 12 9 18 -2 28
-8 8 -20 12 -26 9z"/>
<path d="M1076 3418 c-21 -29 -20 -41 2 -61 25 -23 55 -21 78 4 17 19 17 23 3
47 -20 36 -61 41 -83 10z"/>
<path d="M1116 2982 c-33 -37 -10 -92 39 -92 23 0 55 32 55 55 0 41 -66 67
-94 37z"/>
<path d="M1681 3490 c-19 -11 -9 -45 14 -45 13 0 21 8 23 21 3 23 -17 37 -37
24z"/>
<path d="M1894 3325 c-27 -41 -6 -91 43 -101 39 -8 73 23 73 64 0 60 -83 87
-116 37z"/>
<path d="M2742 3118 c-21 -21 -14 -64 12 -76 33 -15 66 9 66 47 0 39 -50 57
-78 29z"/>
<path d="M3178 3087 c-28 -22 -32 -60 -8 -90 27 -34 69 -36 97 -4 52 57 -27
141 -89 94z"/>
<path d="M2182 3068 c2 -15 11 -24 26 -26 20 -3 23 0 20 20 -2 15 -11 24 -26
26 -20 3 -23 0 -20 -20z"/>
<path d="M3471 3072 c-8 -15 -7 -23 3 -31 20 -17 48 -2 44 23 -4 27 -34 32
-47 8z"/>
<path d="M2616 3021 c-9 -13 4 -41 18 -41 18 0 35 21 29 36 -6 16 -39 19 -47
5z"/>
<path d="M1380 3334 c-11 -12 -10 -18 3 -32 15 -15 19 -15 32 -1 17 17 11 49
-10 49 -7 0 -18 -7 -25 -16z"/>
<path d="M1705 2917 c-13 -10 -16 -21 -11 -40 5 -22 12 -27 36 -27 24 0 31 5
36 27 5 19 2 30 -11 40 -11 7 -22 13 -25 13 -3 0 -14 -6 -25 -13z"/>
<path d="M3395 2751 c-6 -11 9 -23 19 -14 9 9 7 23 -3 23 -6 0 -12 -4 -16 -9z"/>
<path d="M2143 2714 c-8 -22 15 -43 27 -24 13 21 12 27 -5 34 -9 3 -18 -1 -22
-10z"/>
<path d="M2541 2691 c-19 -12 -6 -41 18 -41 20 0 31 17 24 38 -5 14 -22 15
-42 3z"/>
<path d="M2726 2674 c-32 -32 -10 -79 35 -72 12 2 28 13 36 25 13 19 12 24 -6
42 -25 25 -44 27 -65 5z"/>
<path d="M2201 264 c0 -11 3 -14 6 -6 3 7 2 16 -1 19 -3 4 -6 -2 -5 -13z"/>
</g>
</svg>
